# xmcd CD database file
#
# Track frame offsets:
#	150
#	13490
#	26531
#	44610
#	60933
#	74464
#	89877
#	104032
#	118606
#	135834
#
# Disc length: 2063 seconds
#
# Revision: 0
# Processed by: cddbd v1.5.2PL0 Copyright (c) Steve Scherf et al.
# Submitted via: CDex 1.70beta2
#
DISCID=8f080d0a
DTITLE=Nicholson, Amber (NC) - Cdn, - Places We Go Through
DYEAR=2007
DGENRE=Country
TTITLE0=Diggin' In the Dirt
TTITLE1=Afraid of Love
TTITLE2=Take You By Surprise
TTITLE3=Places We Go Through
TTITLE4=Girlfriends
TTITLE5=Full Speed Ahead
TTITLE6=Hold Me Back
TTITLE7=Last Bridge Burning
TTITLE8=Heads I Win, Tails You Lose
TTITLE9=Tonight It's Just Me
EXTD=YEAR: 2007
EXTT0=
EXTT1=
EXTT2=
EXTT3=
EXTT4=
EXTT5=
EXTT6=
EXTT7=
EXTT8=
EXTT9=
PLAYORDER=
